<svg width="656" height="410" viewBox="0 0 656 410" fill="none" xmlns="http://www.w3.org/2000/svg">
<g clip-path="url(#clip0_36_32)">
<path d="M269.862 185.293C283.474 178.446 293.765 170.82 300.817 162.579C313.363 147.737 319.554 128.057 319.554 103.662C319.554 79.9231 313.363 59.6282 300.981 42.6132C280.317 14.8972 245.344 0.711144 195.898 -0.0268555H0V399.846H182.655C203.237 399.846 222.302 398.083 239.932 394.475C257.562 390.826 272.814 384.143 285.729 374.385C297.209 365.898 306.803 355.361 314.429 342.938C326.483 324.16 332.51 302.881 332.51 279.183C332.51 256.223 327.221 236.666 316.725 220.594C306.106 204.522 290.526 192.755 269.862 185.293ZM80.811 69.4271H169.043C188.436 69.4271 204.426 71.5181 216.972 75.6591C231.486 81.6861 238.743 93.9451 238.743 112.641C238.743 129.41 233.208 141.136 222.261 147.737C211.232 154.338 196.923 157.659 179.375 157.659H80.811V69.4271ZM220.334 323.422C210.576 328.137 196.841 330.474 179.252 330.474H80.811V223.833H180.605C197.989 223.956 211.519 226.252 221.195 230.557C238.415 238.347 246.984 252.615 246.984 273.484C246.984 298.084 238.128 314.648 220.334 323.422Z" fill="black"/>
<path d="M592.901 18.6282H419.184V68.4022H592.901V18.6282Z" fill="black"/>
<path d="M653.253 215.059C649.645 191.894 641.691 171.517 629.309 153.928C615.738 134.002 598.518 119.406 577.567 110.181C556.698 100.915 533.205 96.282 507.047 96.323C463.136 96.323 427.466 110.058 399.873 137.323C372.362 164.67 358.586 203.989 358.586 255.239C358.586 309.892 373.797 349.375 404.383 373.606C434.846 397.878 470.024 409.973 509.958 409.973C558.297 409.973 595.894 395.582 622.749 366.882C639.928 348.76 649.645 330.925 651.777 313.418H571.745C567.112 322.069 561.741 328.834 555.591 333.754C544.439 342.774 529.925 347.284 512.131 347.284C495.198 347.284 480.848 343.553 468.876 336.132C449.114 324.242 438.782 303.414 437.47 273.771H655.877C656.205 248.228 655.385 228.589 653.253 215.059ZM439.438 222.726C442.308 203.497 449.278 188.245 460.348 176.97C471.418 165.736 487.08 160.078 507.129 160.037C525.62 160.037 541.077 165.326 553.664 175.945C566.087 186.646 573.098 202.185 574.533 222.726H439.438Z" fill="black"/>
</g>
<defs>
<clipPath id="clip0_36_32">
<rect width="656" height="410" fill="white"/>
</clipPath>
</defs>
</svg>
