<svg width="48" height="48" viewBox="0 0 48 48" fill="none" xmlns="http://www.w3.org/2000/svg">
<path d="M21.0847 43.5643C18.8262 47.436 13.6793 48.4411 10.13 45.7036L9.55841 45.2628C6.00129 42.5193 5.37193 37.3979 8.15894 33.8747L10.4973 30.9188C10.7573 30.5901 10.846 30.1576 10.7364 29.753V29.753C10.6138 29.3005 10.2606 28.9468 9.80832 28.8235L6.40051 27.8944C2.34201 26.7878 -0.00983375 22.5572 1.19261 18.526L1.86473 16.2728C3.06031 12.2647 7.52477 10.2405 11.3274 11.9823L14.7881 13.5675C15.2442 13.7764 15.7814 13.6879 16.1465 13.3438V13.3438C16.4183 13.0875 16.5592 12.7216 16.5294 12.3491L16.2163 8.43053C15.8532 3.88726 19.4422 0 24 0V0C28.5578 0 32.1468 3.88726 31.7837 8.43053L31.471 12.344C31.441 12.7197 31.583 13.0887 31.8573 13.3473V13.3473C32.221 13.6902 32.7547 13.7818 33.2119 13.5799L36.6977 12.0405C40.562 10.334 45.045 12.4218 46.2256 16.4778L46.7517 18.2854C47.9812 22.5095 45.4683 26.9124 41.2059 28.002L37.8999 28.8471C37.4705 28.9569 37.1232 29.2721 36.9726 29.689V29.689C36.8139 30.1282 36.8956 30.6183 37.1881 30.9823L39.564 33.9388C42.3619 37.4205 41.7594 42.5202 38.2272 45.254L37.4484 45.8568C33.965 48.5528 28.8955 47.4862 26.7938 43.6151L25.1366 40.5626C24.9076 40.1409 24.4663 39.8784 23.9865 39.8784V39.8784C23.5211 39.8784 23.0907 40.1256 22.8562 40.5276L21.0847 43.5643Z" fill="#6322EB"/>
</svg>
