<svg width="410" height="410" viewBox="0 0 410 410" fill="none" xmlns="http://www.w3.org/2000/svg">
<g clip-path="url(#clip0_36_54)">
<path d="M409.8 409.8V259.784C409.8 186.056 393.928 129.736 307.912 129.736C266.44 129.736 238.792 152.264 227.528 173.768H226.504V136.392H145.096V409.8H230.088V274.12C230.088 238.28 236.744 203.976 280.776 203.976C324.296 203.976 324.808 244.424 324.808 276.168V409.288H409.8V409.8Z" fill="black"/>
<path d="M6.85596 136.392H91.8479V409.8H6.85596V136.392Z" fill="black"/>
<path d="M49.3522 0.199951C22.2162 0.199951 0.200195 22.216 0.200195 49.352C0.200195 76.488 22.2162 99.0159 49.3522 99.0159C76.4882 99.0159 98.5042 76.488 98.5042 49.352C98.5042 22.216 76.4882 0.199951 49.3522 0.199951Z" fill="black"/>
</g>
<defs>
<clipPath id="clip0_36_54">
<rect width="410" height="410" fill="white"/>
</clipPath>
</defs>
</svg>
