<svg width="150" height="22" viewBox="0 0 150 22" fill="none" xmlns="http://www.w3.org/2000/svg">
<path d="M6.97361 19.7769C6.25358 20.9519 4.68282 21.2603 3.57199 20.4446L3.37719 20.3016C2.24774 19.4723 2.0503 17.8628 2.94581 16.7851L3.63418 15.9566C3.71664 15.8574 3.74483 15.7239 3.7095 15.5998V15.5998C3.67156 15.4665 3.56587 15.3632 3.43172 15.3284L2.36208 15.0508C1.07695 14.7172 0.332669 13.3759 0.729643 12.1089L0.875052 11.6448C1.27363 10.3727 2.68778 9.72763 3.90972 10.2605L5.00346 10.7375C5.14175 10.7978 5.30252 10.7718 5.41479 10.671V10.671C5.50461 10.5904 5.55145 10.4724 5.54136 10.3521L5.45415 9.31315C5.33377 7.87897 6.46535 6.64844 7.90456 6.64844V6.64844C9.34378 6.64844 10.4754 7.87897 10.355 9.31315L10.2679 10.3505C10.2577 10.4718 10.305 10.5908 10.3955 10.6721V10.6721C10.5073 10.7724 10.667 10.7993 10.8055 10.7411L11.9068 10.2781C13.1483 9.75609 14.569 10.4215 14.9628 11.7095L15.06 12.0273C15.4665 13.357 14.6705 14.7547 13.3195 15.0835L12.2853 15.3352C12.1583 15.3661 12.0547 15.4576 12.0083 15.5799V15.5799C11.9572 15.7145 11.9831 15.8663 12.076 15.9764L12.8172 16.8545C13.6935 17.8926 13.5093 19.4553 12.4156 20.2612L12.1011 20.4929C11.0122 21.2953 9.46699 20.9679 8.79691 19.7929L8.2685 18.8663C8.19305 18.734 8.05245 18.6523 7.90014 18.6523V18.6523C7.7526 18.6523 7.61566 18.729 7.53857 18.8548L6.97361 19.7769Z" fill="#10664F"/>
<path d="M34.8017 7.03004C35.2127 7.03004 35.4182 7.18245 35.4182 7.48728V7.60159C35.4182 7.83021 35.1539 8.15408 34.6255 8.57322C34.0971 8.9733 33.7546 9.37339 33.5981 9.77347L29.5469 20.0613C29.3903 20.5186 29.0674 20.7472 28.5781 20.7472H26.67C26.2394 20.7472 25.9263 20.5186 25.7306 20.0613L20.8574 9.77347C20.7008 9.43054 20.4171 9.04951 20.0061 8.63037C19.6147 8.19219 19.4189 7.84926 19.4189 7.60159V7.48728C19.4189 7.18245 19.6147 7.03004 20.0061 7.03004H25.848C26.2394 7.03004 26.4351 7.19198 26.4351 7.51585V7.63016C26.4351 7.78258 26.347 7.97309 26.1709 8.20171C25.9948 8.43033 25.8578 8.64942 25.7599 8.85899C25.6621 9.04951 25.6816 9.38291 25.8186 9.8592L28.901 17.5465L31.6605 10.4022C31.8562 9.71631 31.8758 9.24002 31.7193 8.9733C31.5627 8.70658 31.3376 8.45891 31.0441 8.23029C30.7701 7.98262 30.6331 7.78258 30.6331 7.63016V7.51585C30.6331 7.19198 30.8386 7.03004 31.2496 7.03004H34.8017Z" fill="#10664F"/>
<path d="M41.4715 4.31519C40.9627 4.77242 40.2777 5.00104 39.4166 5.00104C38.5555 5.00104 37.8509 4.77242 37.3029 4.31519C36.7745 3.8389 36.5103 3.22924 36.5103 2.48623C36.5103 1.76227 36.7745 1.17167 37.3029 0.714434C37.8509 0.238145 38.5555 0 39.4166 0C40.2777 0 40.9627 0.238145 41.4715 0.714434C41.9999 1.17167 42.2641 1.76227 42.2641 2.48623C42.2641 3.22924 41.9999 3.8389 41.4715 4.31519ZM36.7451 20.7472C36.3146 20.7472 36.0993 20.5853 36.0993 20.2614V20.1471C36.0993 19.9565 36.2852 19.6612 36.6571 19.2612C37.0289 18.8611 37.2149 18.4324 37.2149 17.9752V11.5167C37.2149 11.0404 37.0289 10.5927 36.6571 10.1736C36.2852 9.75442 36.0993 9.46864 36.0993 9.31623V9.2305C36.0993 9.03998 36.3048 8.83994 36.7158 8.63037L40.3853 6.85857C40.7572 6.70616 41.0507 6.69664 41.266 6.83C41.4813 6.94431 41.5889 7.14435 41.5889 7.43012V17.9752C41.5889 18.4324 41.7944 18.8611 42.2054 19.2612C42.6164 19.6612 42.8219 19.9565 42.8219 20.1471V20.2614C42.8219 20.5853 42.5968 20.7472 42.1467 20.7472H36.7451Z" fill="#10664F"/>
<path d="M51.7781 21.033C49.6057 21.033 47.7954 20.3281 46.3472 18.9182C44.9185 17.5084 44.2042 15.8224 44.2042 13.86C44.2042 11.7263 44.9185 10.0116 46.3472 8.71611C47.7954 7.4206 49.547 6.76332 51.602 6.74427C53.2851 6.72521 54.7138 7.10625 55.888 7.88736C57.0818 8.66848 57.6787 9.62106 57.6787 10.7451C57.6787 11.1642 57.532 11.5167 57.2384 11.8025C56.9448 12.0692 56.4849 12.193 55.8587 12.174C55.3889 12.1549 54.978 11.993 54.6257 11.6882C54.2734 11.3833 53.9798 11.0309 53.745 10.6308C53.5297 10.2307 53.3046 9.83062 53.0698 9.43054C52.8349 9.03046 52.5414 8.69705 52.1891 8.43033C51.8368 8.14456 51.4258 8.00167 50.9561 8.00167C50.1342 8.00167 49.4688 8.36365 48.9599 9.08761C48.4706 9.81157 48.226 10.7165 48.226 11.8025C48.226 13.7076 48.6761 15.2318 49.5764 16.3748C50.4962 17.5179 51.7096 18.0895 53.2166 18.0895C54.7627 18.0895 55.9369 17.4227 56.7393 16.0891C56.8568 15.9367 56.9938 15.8509 57.1503 15.8319C57.3265 15.7938 57.4732 15.8319 57.5907 15.9462C57.7277 16.0414 57.7864 16.1843 57.7668 16.3748C57.669 17.6513 57.0916 18.7468 56.0348 19.6612C54.9975 20.5757 53.5786 21.033 51.7781 21.033Z" fill="#10664F"/>
<path d="M71.2666 16.4034C71.4427 16.1748 71.658 16.0986 71.9124 16.1748C72.1669 16.251 72.2843 16.432 72.2647 16.7178C72.1669 17.7085 71.5797 18.6801 70.5033 19.6327C69.4269 20.5662 68.0276 21.033 66.3054 21.033C64.2309 21.033 62.5282 20.3662 61.1974 19.0325C59.8666 17.6989 59.2011 15.9462 59.2011 13.7743C59.2011 11.7358 59.8959 10.0592 61.2854 8.74468C62.675 7.41107 64.3483 6.74427 66.3054 6.74427C68.0863 6.74427 69.4563 7.15387 70.4153 7.97309C71.3742 8.79231 71.8537 9.73537 71.8537 10.8023C71.8537 11.6786 71.4232 12.3073 70.562 12.6884L64.0449 15.5747C64.8473 17.2322 66.139 18.0609 67.92 18.0609C68.6637 18.0609 69.3291 17.9085 69.9162 17.6037C70.5229 17.2798 70.973 16.8797 71.2666 16.4034ZM65.777 8.00167C65.0137 8.00167 64.407 8.36365 63.9569 9.08761C63.5067 9.79252 63.2817 10.6975 63.2817 11.8025C63.2817 12.736 63.3795 13.5552 63.5752 14.2601L67.3622 12.4026C67.8711 12.1549 68.1255 11.7072 68.1255 11.0595C68.1255 10.4117 67.9102 9.74489 67.4796 9.05903C67.0491 8.35413 66.4815 8.00167 65.777 8.00167Z" fill="#10664F"/>
<path d="M93.5143 7.03004C93.9253 7.03004 94.1308 7.18245 94.1308 7.48728V7.60159C94.1308 7.83021 93.8666 8.15408 93.3382 8.57322C92.8098 8.9733 92.4673 9.37339 92.3107 9.77347L88.2596 20.0613C88.103 20.5186 87.7801 20.7472 87.2908 20.7472H85.3826C84.9521 20.7472 84.639 20.5186 84.4432 20.0613L79.5701 9.77347C79.4135 9.43054 79.1297 9.04951 78.7188 8.63037C78.3273 8.19219 78.1316 7.84926 78.1316 7.60159V7.48728C78.1316 7.18245 78.3273 7.03004 78.7188 7.03004H84.5607C84.9521 7.03004 85.1478 7.19198 85.1478 7.51585V7.63016C85.1478 7.78258 85.0597 7.97309 84.8836 8.20171C84.7074 8.43033 84.5705 8.64942 84.4726 8.85899C84.3747 9.04951 84.3943 9.38291 84.5313 9.8592L87.6137 17.5465L90.3732 10.4022C90.5689 9.71631 90.5885 9.24002 90.4319 8.9733C90.2754 8.70658 90.0503 8.45891 89.7567 8.23029C89.4827 7.98262 89.3457 7.78258 89.3457 7.63016V7.51585C89.3457 7.19198 89.5512 7.03004 89.9622 7.03004H93.5143Z" fill="#10664F"/>
<path d="M106.185 16.4034C106.361 16.1748 106.576 16.0986 106.83 16.1748C107.085 16.251 107.202 16.432 107.183 16.7178C107.085 17.7085 106.498 18.6801 105.421 19.6327C104.345 20.5662 102.946 21.033 101.223 21.033C99.1489 21.033 97.4462 20.3662 96.1154 19.0325C94.7845 17.6989 94.1191 15.9462 94.1191 13.7743C94.1191 11.7358 94.8139 10.0592 96.2034 8.74468C97.593 7.41107 99.2663 6.74427 101.223 6.74427C103.004 6.74427 104.374 7.15387 105.333 7.97309C106.292 8.79231 106.772 9.73537 106.772 10.8023C106.772 11.6786 106.341 12.3073 105.48 12.6884L98.9629 15.5747C99.7653 17.2322 101.057 18.0609 102.838 18.0609C103.582 18.0609 104.247 17.9085 104.834 17.6037C105.441 17.2798 105.891 16.8797 106.185 16.4034ZM100.695 8.00167C99.9317 8.00167 99.325 8.36365 98.8749 9.08761C98.4247 9.79252 98.1997 10.6975 98.1997 11.8025C98.1997 12.736 98.2975 13.5552 98.4932 14.2601L102.28 12.4026C102.789 12.1549 103.043 11.7072 103.043 11.0595C103.043 10.4117 102.828 9.74489 102.398 9.05903C101.967 8.35413 101.4 8.00167 100.695 8.00167Z" fill="#10664F"/>
<path d="M117.64 6.74427C118.481 6.74427 119.137 6.99194 119.607 7.48728C120.096 7.96357 120.341 8.58274 120.341 9.34481C120.341 10.8499 119.714 11.6024 118.462 11.6024C117.953 11.6024 117.552 11.4786 117.258 11.2309C116.984 10.9642 116.818 10.6784 116.759 10.3736C116.7 10.0688 116.583 9.79252 116.407 9.54485C116.231 9.27813 115.966 9.14477 115.614 9.14477C115.086 9.14477 114.694 9.44959 114.44 10.0592C114.185 10.6689 114.058 11.4119 114.058 12.2883V18.0038C114.058 18.3467 114.176 18.6515 114.411 18.9182C114.665 19.1659 114.91 19.385 115.144 19.5755C115.399 19.766 115.526 19.9565 115.526 20.1471V20.2614C115.526 20.5853 115.311 20.7472 114.88 20.7472H109.449C108.999 20.7472 108.774 20.5853 108.774 20.2614V20.1471C108.774 19.9565 108.96 19.6612 109.332 19.2612C109.723 18.8611 109.919 18.4419 109.919 18.0038V11.3166C109.919 10.8594 109.694 10.4498 109.244 10.0878C108.794 9.72584 108.569 9.44959 108.569 9.25908V9.14477C108.569 8.87804 108.774 8.64942 109.185 8.45891L112.708 6.85857C113.334 6.5728 113.647 6.76332 113.647 7.43012V9.57343C114.313 7.68732 115.644 6.74427 117.64 6.74427Z" fill="#10664F"/>
<path d="M127.292 21.0044C125.453 21.0044 123.946 20.6805 122.771 20.0328C121.597 19.385 121.01 18.6039 121.01 17.6894C121.01 17.175 121.167 16.7845 121.48 16.5177C121.812 16.251 122.243 16.1177 122.771 16.1177C123.339 16.1177 123.799 16.3177 124.151 16.7178C124.503 17.0988 124.748 17.5275 124.885 18.0038C125.042 18.48 125.316 18.9182 125.707 19.3183C126.118 19.6994 126.646 19.8899 127.292 19.8899C127.919 19.8899 128.427 19.7279 128.819 19.4041C129.23 19.0802 129.435 18.6134 129.435 18.0038C129.435 17.3179 129.151 16.7749 128.584 16.3748C128.036 15.9748 127.361 15.6795 126.558 15.4889C125.756 15.2794 124.954 15.0508 124.151 14.8031C123.349 14.5364 122.664 14.0887 122.096 13.46C121.548 12.8122 121.274 11.9739 121.274 10.9451C121.274 9.72584 121.822 8.72563 122.918 7.94452C124.034 7.14435 125.472 6.74427 127.234 6.74427C129.014 6.74427 130.463 7.08719 131.578 7.77305C132.713 8.43986 133.281 9.24002 133.281 10.1736C133.281 10.5927 133.115 10.9451 132.782 11.2309C132.469 11.5167 132.077 11.6596 131.608 11.6596C131.06 11.6596 130.619 11.4691 130.287 11.088C129.954 10.6879 129.719 10.2593 129.582 9.80205C129.445 9.32576 129.2 8.8971 128.848 8.51606C128.496 8.11598 128.036 7.91594 127.468 7.91594C126.901 7.91594 126.441 8.10645 126.089 8.48749C125.736 8.84947 125.56 9.29718 125.56 9.83062C125.56 10.3641 125.707 10.8118 126.001 11.1738C126.294 11.5357 126.676 11.812 127.145 12.0025C127.615 12.193 128.134 12.374 128.701 12.5455C129.269 12.6979 129.836 12.8789 130.404 13.0884C130.991 13.279 131.52 13.5171 131.989 13.8029C132.459 14.0887 132.841 14.4983 133.134 15.0317C133.428 15.5461 133.575 16.1748 133.575 16.9178C133.575 18.099 133.007 19.0802 131.872 19.8613C130.737 20.6234 129.21 21.0044 127.292 21.0044Z" fill="#10664F"/>
<path d="M148.473 17.8894C148.532 18.3276 148.64 18.6801 148.796 18.9468C148.972 19.2135 149.149 19.385 149.325 19.4612C149.501 19.5184 149.657 19.5946 149.794 19.6898C149.931 19.7851 150 19.9184 150 20.0899C150 20.6424 149.06 20.9187 147.182 20.9187C146.321 20.9187 145.684 20.8139 145.273 20.6043C144.882 20.3757 144.647 19.9661 144.569 19.3755C143.806 20.4805 142.504 21.033 140.665 21.033C139.021 21.033 137.69 20.6615 136.672 19.9184C135.654 19.1754 135.146 18.1085 135.146 16.7178C135.126 15.3461 135.625 14.2792 136.643 13.5171C137.66 12.755 138.933 12.374 140.459 12.374C141.751 12.374 142.817 12.6598 143.659 13.2313L143.63 12.8884C143.434 11.0785 143.16 9.80205 142.808 9.05903C142.455 8.31602 141.858 7.94452 141.017 7.94452C140.488 7.94452 140.058 8.13503 139.725 8.51606C139.392 8.8971 139.158 9.31623 139.021 9.77347C138.884 10.2307 138.659 10.6498 138.345 11.0309C138.032 11.4119 137.631 11.6024 137.142 11.6024C136.613 11.6024 136.183 11.4595 135.85 11.1738C135.537 10.8689 135.38 10.4784 135.38 10.0021C135.38 9.0114 135.919 8.22076 136.995 7.63016C138.091 7.03956 139.432 6.74427 141.017 6.74427C142.915 6.74427 144.471 7.26818 145.684 8.31602C146.898 9.36386 147.612 10.7927 147.827 12.6026L148.473 17.8894ZM141.956 19.7756C142.602 19.7756 143.121 19.5184 143.512 19.004C143.904 18.4705 144.08 17.8704 144.041 17.2036L143.952 16.2034C143.874 15.3842 143.62 14.7555 143.189 14.3173C142.778 13.8791 142.26 13.66 141.633 13.66C141.007 13.66 140.488 13.8791 140.077 14.3173C139.686 14.7555 139.49 15.3365 139.49 16.0605C139.49 17.0893 139.715 17.9657 140.165 18.6896C140.635 19.4136 141.232 19.7756 141.956 19.7756Z" fill="#10664F"/>
</svg>
